<svg width="390" height="844" viewBox="0 0 390 844" fill="none" xmlns="http://www.w3.org/2000/svg">
<path d="M121.251 212H123.056V200.022H123.121L128.073 212H129.705L134.658 200.022H134.722V212H136.527V196.499H134.292L128.921 209.562H128.857L123.486 196.499H121.251V212ZM144.224 212.215C147.307 212.215 149.391 209.98 149.391 206.414V206.393C149.391 202.826 147.297 200.613 144.214 200.613C141.131 200.613 139.047 202.837 139.047 206.393V206.414C139.047 209.97 141.12 212.215 144.224 212.215ZM144.235 210.561C142.259 210.561 140.959 209.046 140.959 206.414V206.393C140.959 203.782 142.269 202.268 144.214 202.268C146.19 202.268 147.479 203.771 147.479 206.393V206.414C147.479 209.035 146.201 210.561 144.235 210.561ZM151.632 212H153.501V205.426C153.501 203.524 154.651 202.268 156.412 202.268C158.131 202.268 158.98 203.267 158.98 205.082V212H160.849V204.749C160.849 202.203 159.431 200.613 156.982 200.613C155.284 200.613 154.146 201.376 153.544 202.418H153.501V200.828H151.632V212ZM167.784 212.215C169.384 212.215 170.63 211.409 171.329 210.109H171.372V212H173.241V196.499H171.372V202.697H171.329C170.63 201.408 169.331 200.613 167.752 200.613C164.948 200.613 163.036 202.88 163.036 206.403V206.414C163.036 209.938 164.926 212.215 167.784 212.215ZM168.149 210.561C166.172 210.561 164.948 208.981 164.948 206.414V206.403C164.948 203.857 166.172 202.268 168.149 202.268C170.029 202.268 171.382 203.911 171.382 206.403V206.414C171.382 208.917 170.04 210.561 168.149 210.561ZM179.381 212.215C180.874 212.215 182.217 211.409 182.872 210.185H182.915V212H184.784V204.276C184.784 202.042 183.13 200.613 180.487 200.613C177.855 200.613 176.255 202.096 176.094 203.933L176.083 204.051H177.888L177.909 203.954C178.124 202.955 179.026 202.268 180.466 202.268C182.023 202.268 182.915 203.095 182.915 204.459V205.394L179.714 205.576C177.146 205.727 175.664 206.919 175.664 208.82V208.842C175.664 210.872 177.157 212.215 179.381 212.215ZM177.576 208.842V208.82C177.576 207.778 178.436 207.112 179.929 207.026L182.915 206.844V207.757C182.915 209.379 181.562 210.593 179.8 210.593C178.457 210.593 177.576 209.916 177.576 208.842ZM188.582 215.76C190.602 215.76 191.579 214.836 192.374 212.698L196.736 200.828H194.77L191.676 210.131H191.633L188.55 200.828H186.552L190.699 212.011L190.473 212.645C190.022 213.912 189.367 214.213 188.185 214.213C187.959 214.213 187.745 214.181 187.583 214.148V215.674C187.82 215.717 188.217 215.76 188.582 215.76ZM196.194 215.04H197.526L199.095 209.787H197.139L196.194 215.04ZM209.42 212.258C212.288 212.258 213.985 210.518 213.985 207.585V196.499H212.051V207.563C212.051 209.454 211.128 210.475 209.409 210.475C207.873 210.475 207.11 209.497 206.992 208.326L206.981 208.219H205.047L205.058 208.369C205.219 210.593 206.734 212.258 209.42 212.258ZM220.866 212.215C222.563 212.215 223.702 211.452 224.304 210.41H224.347V212H226.216V200.828H224.347V207.402C224.347 209.304 223.197 210.561 221.436 210.561C219.717 210.561 218.868 209.562 218.868 207.746V200.828H216.999V208.079C216.999 210.625 218.417 212.215 220.866 212.215ZM229.004 212H230.873V205.426C230.873 203.524 232.023 202.268 233.785 202.268C235.503 202.268 236.352 203.267 236.352 205.082V212H238.221V204.749C238.221 202.203 236.803 200.613 234.354 200.613C232.657 200.613 231.518 201.376 230.916 202.418H230.873V200.828H229.004V212ZM245.554 212.215C247.992 212.215 249.818 210.754 250.183 208.906L250.205 208.799H248.368L248.336 208.896C248.013 209.852 247.014 210.561 245.596 210.561C243.609 210.561 242.342 209.218 242.299 206.919H250.345V206.231C250.345 202.88 248.486 200.613 245.435 200.613C242.385 200.613 240.408 202.987 240.408 206.446V206.457C240.408 209.97 242.342 212.215 245.554 212.215ZM245.425 202.268C247.057 202.268 248.261 203.288 248.443 205.458H242.331C242.535 203.374 243.803 202.268 245.425 202.268ZM262.711 212.258C265.815 212.258 268.092 210.346 268.092 207.757V207.735C268.092 205.533 266.556 204.126 264.3 203.933V203.89C266.234 203.481 267.587 202.171 267.587 200.259V200.237C267.587 197.885 265.643 196.241 262.689 196.241C259.789 196.241 257.791 197.928 257.544 200.452L257.533 200.56H259.391L259.402 200.452C259.563 198.884 260.863 197.917 262.689 197.917C264.58 197.917 265.643 198.852 265.643 200.474V200.495C265.643 202.042 264.354 203.181 262.506 203.181H260.648V204.813H262.592C264.762 204.813 266.127 205.877 266.127 207.778V207.8C266.127 209.443 264.741 210.582 262.711 210.582C260.648 210.582 259.252 209.529 259.09 208.004L259.08 207.896H257.221L257.232 208.025C257.436 210.475 259.509 212.258 262.711 212.258Z" fill="white"/>
<path d="M219.949 176H223.11V161.37H232.391V158.452H223.11V117.519H218.49L189.837 158.411V161.37H219.949V176ZM193.322 158.452V158.371L219.787 120.802H219.949V158.452H193.322ZM253.306 176H256.467V117.519H253.306L237.257 127.854V131.217L253.225 121.045H253.306V176Z" fill="white"/>
<path d="M179.5 134.89C180.959 134.89 182.175 133.674 182.175 132.175C182.175 130.716 180.959 129.5 179.5 129.5C178.001 129.5 176.785 130.716 176.785 132.175C176.785 133.674 178.001 134.89 179.5 134.89ZM179.5 164.324C180.959 164.324 182.175 163.108 182.175 161.609C182.175 160.15 180.959 158.934 179.5 158.934C178.001 158.934 176.785 160.15 176.785 161.609C176.785 163.108 178.001 164.324 179.5 164.324Z" fill="white"/>
<path d="M146.035 116.668C134.769 116.668 126.298 125.138 126.298 136.445V136.526C126.298 147.469 134.688 155.777 145.711 155.777C154.627 155.777 162.043 150.184 164.029 142.687H164.191C164.232 143.375 164.232 144.186 164.191 144.997C164.07 161.086 158.274 173.933 145.751 173.933C138.213 173.933 132.377 169.354 130.959 162.95L130.878 162.504H127.636L127.717 163.031C129.176 170.934 136.025 176.851 145.751 176.851C159.044 176.851 167.353 164.733 167.353 144.429V144.348C167.353 125.827 158.193 116.668 146.035 116.668ZM146.076 152.899C136.714 152.899 129.541 145.767 129.541 136.486V136.405C129.541 126.921 136.795 119.586 146.035 119.586C155.843 119.586 162.895 127.489 162.895 137.134V137.215C162.895 145.686 155.194 152.899 146.076 152.899Z" fill="white"/>
<g filter="url(#filter0_b_36_6836)">
<circle cx="69" cy="769" r="25" fill="#F5F5F5" fill-opacity="0.15"/>
</g>
<path d="M63.8125 759.491H74.1895V758.999C74.1895 757.707 73.5537 757.092 72.3232 757.092H65.6787C64.4482 757.092 63.8125 757.707 63.8125 758.999V759.491ZM67.7705 780.05H70.2314C71.4619 780.05 72.0874 779.435 72.0874 778.143V767.253C72.0874 766.177 72.3438 765.397 72.7334 764.803L73.3999 763.818C73.8716 763.09 74.1895 762.403 74.1895 761.532V760.691H63.8125V761.532C63.8125 762.403 64.1304 763.09 64.6021 763.818L65.2583 764.803C65.6582 765.397 65.9043 766.177 65.9043 767.253V778.143C65.9043 779.435 66.54 780.05 67.7705 780.05ZM69.001 772.165C68.1602 772.165 67.6167 771.55 67.6167 770.688V767.879C67.6167 767.007 68.1602 766.423 69.001 766.443C69.8315 766.454 70.3853 767.038 70.3853 767.879V770.688C70.3853 771.55 69.8315 772.165 69.001 772.165ZM69.001 771.437C69.4521 771.437 69.8418 771.058 69.8418 770.596C69.8418 770.135 69.4521 769.745 69.001 769.745C68.5396 769.745 68.1499 770.135 68.1499 770.596C68.1499 771.058 68.5396 771.437 69.001 771.437Z" fill="white"/>
<g filter="url(#filter1_b_36_6836)">
<circle cx="321" cy="769" r="25" fill="#F5F5F5" fill-opacity="0.15"/>
</g>
<path d="M312.126 778.051H330.87C333.003 778.051 334.09 776.984 334.09 774.872V764.136C334.09 762.024 333.003 760.968 330.87 760.968H327.938C327.127 760.968 326.881 760.804 326.42 760.291L325.6 759.368C325.087 758.804 324.564 758.497 323.508 758.497H319.417C318.36 758.497 317.837 758.804 317.325 759.368L316.504 760.291C316.043 760.793 315.787 760.968 314.987 760.968H312.126C309.983 760.968 308.906 762.024 308.906 764.136V774.872C308.906 776.984 309.983 778.051 312.126 778.051ZM321.498 775.026C318.391 775.026 315.899 772.544 315.899 769.417C315.899 766.3 318.391 763.818 321.498 763.818C324.605 763.818 327.086 766.3 327.086 769.417C327.086 772.544 324.595 775.026 321.498 775.026ZM327.773 765.644C327.773 764.946 328.389 764.331 329.106 764.331C329.814 764.331 330.419 764.946 330.419 765.644C330.419 766.372 329.814 766.956 329.106 766.966C328.389 766.966 327.773 766.382 327.773 765.644ZM321.498 773.467C323.733 773.467 325.538 771.673 325.538 769.417C325.538 767.171 323.733 765.367 321.498 765.367C319.263 765.367 317.448 767.171 317.448 769.417C317.448 771.673 319.273 773.467 321.498 773.467Z" fill="white"/>
<defs>
<filter id="filter0_b_36_6836" x="-36" y="664" width="210" height="210" filterUnits="userSpaceOnUse" color-interpolation-filters="sRGB">
<feFlood flood-opacity="0" result="BackgroundImageFix"/>
<feGaussianBlur in="BackgroundImageFix" stdDeviation="40"/>
<feComposite in2="SourceAlpha" operator="in" result="effect1_backgroundBlur_36_6836"/>
<feBlend mode="normal" in="SourceGraphic" in2="effect1_backgroundBlur_36_6836" result="shape"/>
</filter>
<filter id="filter1_b_36_6836" x="216" y="664" width="210" height="210" filterUnits="userSpaceOnUse" color-interpolation-filters="sRGB">
<feFlood flood-opacity="0" result="BackgroundImageFix"/>
<feGaussianBlur in="BackgroundImageFix" stdDeviation="40"/>
<feComposite in2="SourceAlpha" operator="in" result="effect1_backgroundBlur_36_6836"/>
<feBlend mode="normal" in="SourceGraphic" in2="effect1_backgroundBlur_36_6836" result="shape"/>
</filter>
</defs>
</svg>
